<svg xmlns="http://www.w3.org/2000/svg" viewBox="0 0 800 800"><defs><style>.cls-1,.cls-6{fill:#f1b828;}.cls-2{fill:#7d6378;}.cls-2,.cls-3,.cls-4,.cls-5,.cls-6,.cls-7,.cls-8{stroke:#3d3935;stroke-linecap:round;stroke-miterlimit:10;}.cls-2,.cls-3,.cls-4,.cls-5,.cls-6,.cls-7{stroke-width:2px;}.cls-3{fill:#fff;}.cls-4,.cls-8{fill:none;}.cls-5{fill:#489fdf;}.cls-7{fill:#3d3935;}.cls-8{stroke-width:2.4px;}</style></defs><title>01.Front-End</title><g id="Front-End"><g id="FE_bubble" data-name="FE+bubble"><path class="cls-1" d="M240.94,343.53c-24.67,0-35.11-16-35.11-39.37V123.49c0-24,15.13-42.7,38.61-43.72,37.16-1.61,57.16,16.39,65.75,29.05.87,1.3-29.55-11-29.55,10.75V299.49C280.64,329.49,267.6,343.53,240.94,343.53Z"/><path class="cls-2" d="M384.14,749.39H257.36c-4,0-4.44-6-1.18-7,3.86-1.27,17.59-7.07,17.59-16.07v-9.89h94v9.14c0,8.69,13.17,15,17.46,17.5C388.24,744.77,387.24,749.39,384.14,749.39Z"/><rect class="cls-3" x="198.33" y="551.75" width="245.44" height="167.01" rx="12.38"/><circle class="cls-4" cx="321.34" cy="706.88" r="5.35"/><rect class="cls-5" x="206.78" y="561.05" width="227.43" height="134.88" rx="2.81"/><path class="cls-4" d="M358.11,761.06s-.34,18.41-.34,19.09c0,.45,5.66.5,5.66-3.52s-4.67-4.84-4.67-5.29,5.36-1.49,5.3-6.42C364,760.69,358.11,760.7,358.11,761.06Z"/><path class="cls-4" d="M375.09,761.5c-.32,0-4.15-.06-4.28.2s-.19,17.57-.13,18,5.1.32,5.1.32"/><path class="cls-4" d="M387.58,761.57s-5.39-.13-5.45.26-.48,17.83,0,18,4.5.06,4.5.06"/><line class="cls-4" x1="371.14" y1="770.45" x2="375.37" y2="770.45"/><line class="cls-4" x1="382.19" y1="770.32" x2="386.57" y2="770.45"/><path class="cls-4" d="M528.58,761.57s-5.39.39-5.45.78-.48,17.31,0,17.44,4.64,0,4.64,0"/><line class="cls-4" x1="523.19" y1="770.32" x2="527.93" y2="769.76"/><line class="cls-4" x1="397.06" y1="780.1" x2="397.19" y2="761.81"/><line class="cls-4" x1="393.11" y1="761.48" x2="401.52" y2="761.48"/><path class="cls-4" d="M406.86,780s-.09-17.43-.09-18.49c0-.73,5.13-.08,5.13,3.65,0,3.57-4.3,4.82-4,5.19a30.39,30.39,0,0,1,5.9,9.65"/><path class="cls-4" d="M424,761.05c-3,0-4.24,3.76-4.46,9.24-.25,6.61,1.05,10,3.36,10s3.6-3.39,3.67-10.49C426.61,764.33,426.29,761,424,761.05Z"/><path class="cls-4" d="M436.32,761.13c-2.37-.08-3.81,3.51-4,9-.24,6.62.89,10,3.09,10s3.58-4.09,3.65-11.18C439.1,763.46,438.41,761.21,436.32,761.13Z"/><line class="cls-4" x1="444.29" y1="761.45" x2="453.27" y2="761.45"/><line class="cls-4" x1="448.47" y1="761.52" x2="448.39" y2="779.96"/><circle class="cls-4" cx="458.16" cy="780.01" r="0.28"/><path class="cls-4" d="M470.3,780c1.54-9.1,4.81-18.81,5.16-18.81.51,0,2.57,10.91,3.25,18.9"/><line class="cls-4" x1="472.01" y1="773.3" x2="477.43" y2="773.3"/><path class="cls-4" d="M495.3,780c1.41-10.81,4.53-18.31,5.35-18.56.3-.1,2.68,9.75,3.06,18.65"/><line class="cls-4" x1="497.01" y1="773.3" x2="502.43" y2="773.3"/><path class="cls-4" d="M489.58,761.44c-3.68.81-6.12,4.56-6.12,10.5s3.62,7.69,5.5,7.87"/><path class="cls-4" d="M510.08,761.56c-.12,1.07,0,17.69,0,18.19,0,.81,7-2.12,7-10.44C517.08,762.43,510.19,760.69,510.08,761.56Z"/><path class="cls-4" d="M533.79,780s2.94-18.54,3.49-18.54c.28,0,3.61,8.68,4.29,8.68s3.41-8.71,3.95-8.82,3.17,18.57,3.17,18.57"/><path class="cls-4" d="M552.68,761.18c.1.68,4.15,8.83,4.73,8.92s5.12-8.82,5.12-8.82"/><line class="cls-4" x1="557.41" y1="770.1" x2="557.31" y2="780.05"/><path class="cls-6" d="M556.9,701.29c-1.07,5.54-40.86,7.91-42.72.94-5.33-20-18.61-72.34-33.77-139.71C467.24,504,462,389.69,461,376.69c-.1-1.27-31.47,11.08-56.25,23.49V390.09a6.57,6.57,0,0,0-6.57-6.57h-104a96.7,96.7,0,0,1,22.1-25.5c25.7-20.24,63.08-34.9,87.81-48.65H520.78a1.21,1.21,0,0,0,1.21-1.22v-19a286.67,286.67,0,0,1-42.2,5.49c-21.08,1.22-50.34-4-50.44-8a1.33,1.33,0,0,0,0-.19s116-13.2,117.61-6.18c5.35,22.59,7.93,56.6,9.26,78.83H515a2.21,2.21,0,0,0-2.22,2.22V469.63a2.21,2.21,0,0,0,2.22,2.22h41C556.74,509.84,559.06,690,556.9,701.29Z"/><path class="cls-4" d="M380.58,414.2c-27.3,18.39-34.75,33.61-36.5,56.91"/><path class="cls-4" d="M461,376.69c-.29-4.61-1.25-30.83-1.25-30.83"/><path class="cls-2" d="M601.17,221.35c-2.19,18.44-19.36,23.81-32.5,18.88-10.54-3.95-21.25-11.92-21.09-10.54,2.68,23.11,2.57,43-.57,50.58-.91,2.18-10.4,5.75-25,8.85V217.53a1.21,1.21,0,0,0-1.21-1.21H404.89c-.09-1.89-.45-2.8-2.15-2.8-3,0-40.67-1.67-41.33,1.33-.54,2.43-.85,27.52-3,30-19.27,22.21-27.09,49.17-9,66.62,2,2,2.21,6.31.41,10.46-2.27,5.24-7.71,10.17-16.57,9.62a22.16,22.16,0,0,1-2.47-.27c-17.68-2.92-41.13-39.31-24.67-91.09,13.64-42.93,42.81-69.85,58.54-81.81v23.08a2.22,2.22,0,0,0,2.22,2.22h61.26a2.22,2.22,0,0,0,2.22-2.22V117.24c21.27-4.3,60.89-7.3,87.76,2,12.66,4.35,19,11.67,18.92,9.26-.16-7-2.53-17.93-4.76-24.09-3.14-8.7,13.15-20.61,20.55-16.91,9.66,4.83,25.1,25.09,34.34,50.88C599.86,173.91,603.05,205.55,601.17,221.35Z"/><rect class="cls-3" x="265.74" y="383.52" width="139" height="102" rx="6.57"/><rect class="cls-3" x="357.74" y="211.45" width="171.07" height="106.08" rx="3.65"/><rect class="cls-5" x="271.93" y="393.08" width="115.9" height="82.86" rx="2.22"/><circle class="cls-4" cx="396.71" cy="434.75" r="4.69"/><path class="cls-6" d="M385.85,393.15l-96.57.41s-.48,1.41-.64,1.77C277.86,421.24,277,452.14,278.56,485c2.42,50.78,15.26,158.05,17.68,164.49s42,4.92,42-3.5c0-16.83,14.37-69.51,21-117s7.81-84.73,15.06-104.67c1.88-5.16,7.11-11.43,13.45-15.15V395A1.88,1.88,0,0,0,385.85,393.15Z"/><rect class="cls-3" x="481.21" y="375.71" width="139" height="93.41" rx="6.57" transform="translate(973.13 -128.3) rotate(90)"/><path class="cls-6" d="M555.87,466.48c0,1.19.07,3,.12,5.37H515a2.21,2.21,0,0,1-2.22-2.22V361.32A2.21,2.21,0,0,1,515,359.1h41.25c.15,2.6.29,5,.41,7.27,1.23,22.62-5.36,34.12-8.23,39.07-3.71,6.41,9.31,14.82,11.29,32.41C560.57,445.24,555.65,458.17,555.87,466.48Z"/><path class="cls-5" d="M588.67,361.32V469.63a2.21,2.21,0,0,1-2.22,2.22H556c0-2.37-.09-4.18-.12-5.37-.22-8.31,4.7-21.24,3.87-28.63-2-17.59-15-26-11.29-32.41,2.87-4.95,9.46-16.45,8.23-39.07-.12-2.24-.26-4.67-.41-7.27h30.18A2.21,2.21,0,0,1,588.67,361.32Z"/><circle class="cls-4" cx="551.95" cy="483.54" r="4.69"/><rect class="cls-3" x="345.25" y="103.74" width="104.4" height="80.88" rx="6.57" transform="translate(541.63 -253.26) rotate(90)"/><path class="cls-5" d="M430.31,98.85v18.39c-2.59.52-4.91,1.07-6.9,1.61-16.19,4.42-21,12.34-29.34,26-.77,1.28-9-.44-22.66,8.67-1.77,1.18-4.08,2.8-6.8,4.86V98.85a2.21,2.21,0,0,1,2.22-2.22h61.26A2.21,2.21,0,0,1,430.31,98.85Z"/><ellipse class="cls-4" cx="397.26" cy="190.35" rx="3.72" ry="3.52"/><path class="cls-2" d="M520.2,220.08v67.17a288.21,288.21,0,0,1-41,5.15c-20.49,1.14-49-3.79-49-7.5,0-25-20.61-31.26-23.5-60.28-.24-2.44-.16-4.32-.24-5.68H519A1.15,1.15,0,0,1,520.2,220.08Z"/><path class="cls-6" d="M520.2,287.25V305.1a1.15,1.15,0,0,1-1.17,1.14H405.71c13.24-7.12,22.75-14,24.56-21.32.1,3.7,28.5,8.62,49,7.48A288.21,288.21,0,0,0,520.2,287.25Z"/><path class="cls-5" d="M430.27,284.9v0c-1.81,7.34-11.32,14.2-24.56,21.32H367.2A1.15,1.15,0,0,1,366,305.1v-85a1.16,1.16,0,0,1,1.18-1.14h39.33c.08,1.36,0,3.24.24,5.68C409.66,253.64,430.27,259.94,430.27,284.9Z"/><path class="cls-3" d="M322.49,338.35c-.49,0-1.19.29-1.19.78,0,2.62,6.06,6.06,9.1,6.06h147c4.25,0,11.87-.3,16.14-2.33,4.5-2.14,26.81-15.54,29.64-18a8.2,8.2,0,0,0,2.69-6.14C525.85,318.62,336.55,336.76,322.49,338.35Z"/><path class="cls-3" d="M521.85,321.35l-25.58,14.77a31.63,31.63,0,0,1-12.11,3.65c-8.67.67-161.63,0-161.63,0-1,0-1.58-.85-.87-1.33s2.4-1.59,3.83-2.42l7.72-4.47c8.86.55,14.3-4.38,16.57-9.62l1-.58c4.21-2.5,7.46-3.66,10-3.66H524.53C526.55,317.69,525.35,319.33,521.85,321.35Z"/><path class="cls-5" d="M384.73,317.88H500.37c1.43,0,.58,1.11-1.89,2.48l-18.06,10a23.14,23.14,0,0,1-8.56,2.48c-6.12.45-114.14,0-114.14,0-.71,0-1.11-.58-.61-.91s1.7-1.08,2.71-1.64c4.59-2.54,17.86-9.95,17.86-9.95C380.65,318.66,382.94,317.88,384.73,317.88Z"/><path class="cls-2" d="M430.31,117.24v64.22a2.22,2.22,0,0,1-2.22,2.22H366.83a2.22,2.22,0,0,1-2.22-2.22V158.38c2.72-2.06,5-3.68,6.8-4.86,13.65-9.11,21.89-7.39,22.66-8.67,8.34-13.66,13.15-21.58,29.34-26C425.4,118.31,427.72,117.76,430.31,117.24Z"/><path class="cls-4" d="M537,128.45c1.37,12.52,20.69,70.06,27.72,83.24"/><path class="cls-4" d="M547.58,229.7c-3.42-24.62-14.22-93.46-38.78-113.1"/><path class="cls-4" d="M413,233.25c13.91,7.77,18.41,20.05,20.05,32.33"/><path class="cls-4" d="M438,248.8c7,12.28,5.73,27.83,5.73,27.83"/><rect class="cls-3" x="220.72" y="685.32" width="124.44" height="10.46" rx="4"/><path class="cls-2" d="M295,647.29c17.46,8.27,39,3.15,42.71-1.5,2.11-2.61,2-10.25,8.79-9s2.78,9.37,1.25,16.5c-.75,3.5,0,11.75-.75,18.25-1.09,9.49-3.5,14-8.5,14H223.72c-3.5,0-5-12.75,9.75-18.75,18-7.31,45.5-1.75,51.25-7.5C288.23,655.78,290.14,645,295,647.29Z"/><circle class="cls-6" cx="320.64" cy="667.04" r="7.72"/><path class="cls-5" d="M259.93,661.31c-4,1-4.82,6.48,0,7.64,6.11,1.48,25.58,2,31.56-4.82,5.68-6.47,5-16.07,2.66-22.25-3.33-8.64-15.29-5-14.29,3.65,1.28,11.1-1.44,12.66-5,13.62S264.89,660.07,259.93,661.31Z"/><rect class="cls-3" x="437.72" y="739.06" width="124.44" height="10.46" rx="4"/><path class="cls-2" d="M512.49,700.77c9,7,36.62,6,42.71-1.44,2.14-2.59,2-10.31,8.79-9.06s2.77,9.38,1.25,16.5c-.75,3.5,0,11.75-.75,18.25-1.1,9.49-3.5,14-8.5,14H441.24c-3.5,0-5-12.75,9.75-18.75,18-7.31,45.5-1.75,51.25-7.5C505.75,709.27,508.25,697.51,512.49,700.77Z"/><circle class="cls-6" cx="537.64" cy="721.04" r="7.72"/><path class="cls-5" d="M476.93,715.31c-4,1-4.82,6.48,0,7.64,6.11,1.48,25.58,2,31.56-4.82,5.68-6.47,5-16.07,2.66-22.25-3.33-8.64-15.29-5-14.29,3.65,1.28,11.1-1.44,12.66-5,13.62S481.89,714.07,476.93,715.31Z"/><path class="cls-4" d="M359,627.49c8.37-18.83,26.78-27.2,26.78-27.2"/><path class="cls-4" d="M368.21,635.85C377,626.23,390,621.63,390,621.63"/><path class="cls-3" d="M347.4,310.5c5.69,1.17,7.59-1.25,16.93-1,7.86.23,15.11,4.48,13.09,4.16-2.47-.4-10.86-.68-8.25-.46s14.44,0,18.71,4c5.5,5.14,11.89,7.27,12.62,9.36.93,2.61-3.37,6.33-6.42,5.38-.6-.19.63,3.57-6,2.22-.36-.07-.66,2.41-8.14.66-5.16-1.21-10.59-2.54-18.07-.66-3.26.83-21.77.2-25.69-5.67C331.27,321.1,341.34,309.24,347.4,310.5Z"/><path class="cls-4" d="M392.32,331.82c-.45-2.56-6.68-3.26-12.12-8.49-1.94-1.86-16.38-2.15-16.38-2.15"/><path class="cls-4" d="M397.44,330.46c-.45-2.57-6.77-5.24-12.93-10.62-3.86-3.38-17.55-3.24-17.55-3.24"/><path class="cls-4" d="M386,334c-1.31-3.49-6.53-2-10.67-6.32-1.85-1.95-13.28-.87-13.28-.87"/><path class="cls-3" d="M449.74,53.27c0,4.44,0,15.92-.34,15.92-2.29,0-2.47-3.77-6.31-1-4.36,3.1.41,10,2.9,12.12s4.14-1.77,4.25-.5c.13,1.58.16,7.92,1,11.42,1.42,6,9.13,11.58,9.25,12.08.52,2.24-.75,10-1.75,13.25-.66,2.16,3.57,8.84,12.83,8.84,9.75,0,16.94-8.41,16.42-9.84-1-2.75-1.32-11.37-1-15.5,0-.25,5.25-6.83,5.75-12.33.32-3.49.5-33.17.5-33.17l-23-7.25Z"/><path class="cls-4" d="M460.33,103.05c6,7.24,18,8.74,26.66-3"/><ellipse class="cls-7" cx="459.99" cy="72.34" rx="2.26" ry="3.96"/><path class="cls-6" d="M458,55.19a7.62,7.62,0,0,0-8,5.6c-.8,4-18.52-7.32-16.15-24.56,1.62-11.78,9.69-16.59,17-16.59,9.48,0,10.77,12.71,13.58,13.58s12.49-4.74,22.61-1.51c6.89,2.2,12.5,9.69,11,23a138.6,138.6,0,0,1-4.74,22.62s-.86-15.94-2.37-16.59-3.88-3.84-7.11-4.09c-5.6-.43-8,4.52-14,4.31C463.19,60.77,462.32,55.4,458,55.19Z"/><path class="cls-5" d="M511.52,54.52v32H473.79a3.06,3.06,0,0,1-3.05-3V57.57a3.06,3.06,0,0,1,3.05-3Z"/><path class="cls-2" d="M522.74,57.57v25.9a3.06,3.06,0,0,1-3,3h-8.17v-32h8.17A3.06,3.06,0,0,1,522.74,57.57Z"/><path class="cls-4" d="M470.65,74.5c-1.74,4.28-7.36,7.49-7.49,8.69-.09.8,7.22.41,7.22.41"/><path class="cls-4" d="M465,89.55h14.32c1.2,0-3.21,4.81-7.63,4.81C466.7,94.36,463.36,89.55,465,89.55Z"/><path class="cls-3" d="M479.33,71.89c0,1,5,5.29,12.23,5.29,6.29,0,12.28-4.66,12.28-5.62,0-.69-4.63-6.06-12.2-6.21C485.3,65.22,479.33,71.1,479.33,71.89Z"/><circle class="cls-7" cx="491.2" cy="71.3" r="5.56"/><path class="cls-4" d="M470.4,97.3a19.13,19.13,0,0,1,2.67,0"/><path class="cls-4" d="M463.83,33c6.68,10.56,14.65,5.6,14.65,5.6"/><path class="cls-4" d="M445,71.84c2.37,1,3.23,4.23,3.23,4.23"/><path class="cls-3" d="M522.54,56.15A48.24,48.24,0,0,1,510,54.06c-3.74-1.36-4.68-4.21-3.42-5.47.69-.68,8.66.46,21.42,1.6C539.78,51.24,545.8,78.45,546.26,81s.68,5.8,2.65,8.19c3.75,4.58-9.67,16.19-12.91,12.32a51.46,51.46,0,0,0-4.33-4.33c-1.14-1-6.43,1.59-9.13-1.81s-2.27-3.68-5-4.3c-4.6-1-7.35,1.53-9.1,1.06-2.39-.64-1.22-5.54,1.87-5.54h8.2c3.43,0,4.2-1.89,4.2-3.51C522.74,83,522.94,56.15,522.54,56.15Z"/><path class="cls-3" d="M540,62.25C535.26,56.16,525.69,57,520.75,59s-7.19,12.13-6.66,14.17,4.56-.24,6.45-3.27c2.8-4.49,4.1-5.84,10.1-5.64"/><path class="cls-3" d="M543.29,70.68c-1.85-2.59-6.68-8.31-13-6.21s-8,8.59-10.79,10.59-3.9,4.39-1.5,5.09S527.18,76,529.31,74c2.4-2.3,5.41-3.08,5.54-1.55a7,7,0,0,0,2.92,4.75"/><path class="cls-4" d="M523,83.79c6.45-3.89,10.82.86,10.82.86"/><path class="cls-4" d="M385.69,410.57C360.87,426.83,359,450.36,359,450.36"/><path class="cls-4" d="M548.42,405.38c-4.53,8.22-8.53,16.22-7,24.33"/><path class="cls-4" d="M394.07,144.86c-5,9-11.33,19-18,18.66"/><path class="cls-4" d="M427.35,117.82c-14.45,11.17-22,40.37-22.61,65.37"/><path class="cls-4" d="M357.43,246.08c-20,12.27-27.66,31.17-25.16,45.21"/><path class="cls-8" d="M227.2,170.51c0,.58-.12,7.42.35,7.65s31.41.35,32.11.23.58-9.12.58-9.12"/><line class="cls-8" x1="243.2" y1="177.58" x2="243.2" y2="170.01"/><line class="cls-8" x1="243.2" y1="199.47" x2="243.2" y2="187.52"/><path class="cls-8" d="M227.39,131.7c1.9.22,31.64,0,32.54,0,1.45,0-3.8-12.53-18.68-12.53C228.94,119.17,225.84,131.51,227.39,131.7Z"/><path class="cls-8" d="M227,141.48c14.5,1.38,33.13,4.07,32.88,4.57s-18.63,5.18-32.13,11.06c-1.38.6,23,2.69,32,4.82"/><path class="cls-8" d="M227.67,223.72c14.5,1.37,33.12,4.07,32.87,4.57s-18.62,5.18-32.12,11.05c-1.39.61,23,2.7,32,4.82"/><path class="cls-8" d="M260.15,280l-32.94.15c-1.3,0-.14-9.14,6.5-9.14,6.36,0,8.6,7.66,9.25,7.06a54.5,54.5,0,0,1,17.19-10.52"/><path class="cls-8" d="M226.31,254.09c.06,5.4,6.71,7.56,16.47,7.94,11.78.46,17.72-1.87,17.82-6s-6.05-6.41-18.69-6.54C232.16,249.41,226.28,250,226.31,254.09Z"/><line class="cls-8" x1="226.93" y1="218.43" x2="226.93" y2="202.22"/><line class="cls-8" x1="227.07" y1="210.89" x2="260.33" y2="211.04"/><path class="cls-8" d="M260.47,300.74c-1,0-33.46,1.13-33.46-.27,0-2.33-.23-13-.23-13"/><line class="cls-8" x1="238.74" y1="290.22" x2="239.08" y2="300.56"/></g></g></svg>